<svg version="1" xmlns="http://www.w3.org/2000/svg" width="256" height="256" viewBox="0 0 192.000000 192.000000"><path d="M0 96v96h192V0H0v96zm100.7-39.8c1.2 1.3 6 8.1 10.8 15.1 4.8 7 9 12.7 9.4 12.5 2-.9 25.5-13.6 30.3-16.4 4.1-2.4 6.8-3.2 9.4-3.1 4.2.3 5.1 1.6 3.3 4.8-.6 1.3-1.5 5.6-2 9.6-.9 8.1-6.4 31.9-8.5 37.1-.8 1.8-1.4 4.4-1.4 5.7 0 2-.5 2.5-2.5 2.5-1.3 0-5 .7-8.2 1.5-4.6 1.2-12.5 1.5-38.8 1.5-18.1.1-35.7 0-39-.2-3.3-.1-7.9-.1-10.3 0-4.1.1-4.4-.1-7.7-5.1-1.9-2.9-4.3-7.7-5.3-10.7-1.1-3.1-2.8-7.4-3.9-9.5-1.1-2.2-3.2-7.6-4.7-12.1s-3.3-9-4.1-10c-3-4-1.2-11.4 2.9-11.4 5.9 0 30.7 9.5 35.7 13.7 1.9 1.6 3.5 2.2 4.8 1.8 1.1-.3 5.9-5.6 10.7-11.8C91.7 58.7 95.9 54 97.5 54c.6 0 2.1 1 3.2 2.2z"/></svg>