<svg id="icon" data-name="icon" xmlns="http://www.w3.org/2000/svg" viewBox="0 0 20 20">
  <title>code</title>
  <path d="M18.5,1H1.5A1.5,1.5,0,0,0,0,2.5v15A1.5,1.5,0,0,0,1.5,19h17A1.5,1.5,0,0,0,20,17.5V2.5A1.5,1.5,0,0,0,18.5,1ZM1.5,2h17a.5.5,0,0,1,.5.5V5H1V2.5A.5.5,0,0,1,1.5,2Zm17,16H1.5a.5.5,0,0,1-.5-.5V6H19V17.5A.5.5,0,0,1,18.5,18Z"/>
  <path d="M3,3.5A.5.5,0,1,1,2.5,3,.5.5,0,0,1,3,3.5Z"/>
  <path d="M5,3.5A.5.5,0,1,1,4.5,3,.5.5,0,0,1,5,3.5Z"/>
  <path d="M7,3.5A.5.5,0,1,1,6.5,3,.5.5,0,0,1,7,3.5Z"/>
  <path d="M5.905,15.187a.388.388,0,0,1-.273-.112L2.549,11.991a.384.384,0,0,1,0-.545L5.632,8.362a.386.386,0,1,1,.546.545L3.367,11.718l2.811,2.811a.386.386,0,0,1-.273.658Z"/>
  <path d="M13.615,15.187a.385.385,0,0,1-.273-.657l2.811-2.811L13.342,8.908a.385.385,0,0,1,.545-.545l3.084,3.084a.386.386,0,0,1,0,.545l-3.084,3.084a.386.386,0,0,1-.273.112Z"/>
  <path d="M7.859,15.161a.386.386,0,0,1-.327-.59L11.387,8.4a.385.385,0,0,1,.654.408L8.186,14.98A.385.385,0,0,1,7.859,15.161Z"/>
</svg>
