<svg id="icon" data-name="icon" xmlns="http://www.w3.org/2000/svg" viewBox="0 0 20 20">
  <title>joystick</title>
  <path d="M13,3.5A3.5,3.5,0,1,0,9,6.964V11.5a.5.5,0,0,0,1,0V6.964A3.5,3.5,0,0,0,13,3.5ZM9.5,6A2.5,2.5,0,1,1,12,3.5,2.5,2.5,0,0,1,9.5,6Z"/>
  <path d="M9,2.5A.5.5,0,1,1,8.5,2,.5.5,0,0,1,9,2.5Z"/>
  <path d="M9.5,14a2.867,2.867,0,0,1-1.714-.539A1.846,1.846,0,0,1,7,12a1.8,1.8,0,0,1,.688-1.383.5.5,0,0,1,.642.766A.827.827,0,0,0,8,12c0,.542.687,1,1.5,1s1.5-.458,1.5-1a.827.827,0,0,0-.331-.617.5.5,0,1,1,.642-.766A1.8,1.8,0,0,1,12,12a1.844,1.844,0,0,1-.786,1.461A2.865,2.865,0,0,1,9.5,14Z"/>
  <path d="M17.829,11.106,11.723,8.053a.5.5,0,0,0-.447.895L17.382,12a.938.938,0,0,1,.246.187L10.134,16.33a1.531,1.531,0,0,1-1.267,0l-7.5-4.142A.938.938,0,0,1,1.618,12L7.724,8.948a.5.5,0,1,0-.447-.895L1.171,11.106A2.285,2.285,0,0,0,0,13v.5a2.41,2.41,0,0,0,1.112,1.936l7.272,4.242a2.41,2.41,0,0,0,2.232,0l7.272-4.242A2.41,2.41,0,0,0,19,13.5V13A2.285,2.285,0,0,0,17.829,11.106Zm-.445,3.466-7.273,4.242a1.405,1.405,0,0,1-1.224,0L1.615,14.572A1.442,1.442,0,0,1,1,13.5v-.376L8.382,17.2a2.5,2.5,0,0,0,2.234,0L18,13.124V13.5a1.439,1.439,0,0,1-.616,1.072Z"/>
</svg>
