<svg id="icon" data-name="icon" xmlns="http://www.w3.org/2000/svg" viewBox="0 0 20 20">
  <title>pencil-ruler</title>
  <path d="M19.354,18.146,12.208,11l6.439-6.439a1.5,1.5,0,0,0,0-2.121L17.561,1.354a1.5,1.5,0,0,0-2.122,0L9,7.793,1.854.647A1.074,1.074,0,0,0,0,1.416V18.5A1.5,1.5,0,0,0,1.5,20H18.586a1.074,1.074,0,0,0,.769-1.853ZM6.5,14H9a.5.5,0,0,0,.354-.146l.146-.146L11.793,16H4.5a.5.5,0,0,1-.5-.5V8.208L6.293,10.5l-.146.146A.5.5,0,0,0,6,11v2.5a.5.5,0,0,0,.5.5Zm2.293-1H7V11.207l8-8L16.793,5ZM16.5,1.915a.5.5,0,0,1,.354.145L17.94,3.146a.5.5,0,0,1,0,.707l-.439.439L15.708,2.5l.439-.439a.5.5,0,0,1,.354-.145Zm2.183,17.039a.1.1,0,0,1-.1.046H1.5a.5.5,0,0,1-.5-.5V17h.5a.5.5,0,0,0,0-1H1V14h.5a.5.5,0,0,0,0-1H1V11h.5a.5.5,0,0,0,0-1H1V8h.5a.5.5,0,0,0,0-1H1V1.415a.1.1,0,0,1,.046-.1.1.1,0,0,1,.1.036L8.292,8.5,7,9.792,4.56,7.353a.934.934,0,0,0-1.044-.314A.933.933,0,0,0,3,8v7.5A1.5,1.5,0,0,0,4.5,17H12a.862.862,0,0,0,.646-1.56L10.207,13,11.5,11.707l7.146,7.146c.025.025.052.063.036.1Z"/>
</svg>
